<mxfile host="app.diagrams.net" modified="2022-11-23T07:18:30.908Z" agent="5.0 (Windows NT 10.0; Win64; x64) AppleWebKit/537.36 (KHTML, like Gecko) Chrome/107.0.0.0 Safari/537.36 Edg/107.0.1418.52" etag="hPvpoVcq7_JBHgQ1OvN3" version="20.5.3" type="github">
  <diagram id="o8yFH6416eVXJcVC_VgU" name="第 1 页">
    <mxGraphModel dx="1673" dy="934" grid="1" gridSize="10" guides="1" tooltips="1" connect="1" arrows="1" fold="1" page="1" pageScale="1" pageWidth="1654" pageHeight="2336" math="0" shadow="0">
      <root>
        <mxCell id="0" />
        <mxCell id="1" parent="0" />
        <mxCell id="XsUZ7Q_pEyMDyvgBv2iL-10" style="rounded=0;orthogonalLoop=1;jettySize=auto;html=1;exitX=1;exitY=0;exitDx=0;exitDy=0;entryX=0;entryY=0.5;entryDx=0;entryDy=0;strokeWidth=1;fontSize=15;" edge="1" parent="1" source="XsUZ7Q_pEyMDyvgBv2iL-1" target="XsUZ7Q_pEyMDyvgBv2iL-4">
          <mxGeometry relative="1" as="geometry" />
        </mxCell>
        <mxCell id="XsUZ7Q_pEyMDyvgBv2iL-11" style="edgeStyle=none;rounded=0;orthogonalLoop=1;jettySize=auto;html=1;exitX=1;exitY=1;exitDx=0;exitDy=0;entryX=0;entryY=0.5;entryDx=0;entryDy=0;strokeWidth=1;fontSize=15;" edge="1" parent="1" source="XsUZ7Q_pEyMDyvgBv2iL-1" target="XsUZ7Q_pEyMDyvgBv2iL-5">
          <mxGeometry relative="1" as="geometry" />
        </mxCell>
        <mxCell id="XsUZ7Q_pEyMDyvgBv2iL-14" style="edgeStyle=none;rounded=0;orthogonalLoop=1;jettySize=auto;html=1;exitX=0.5;exitY=1;exitDx=0;exitDy=0;strokeWidth=1;fontSize=15;" edge="1" parent="1" source="XsUZ7Q_pEyMDyvgBv2iL-1" target="XsUZ7Q_pEyMDyvgBv2iL-3">
          <mxGeometry relative="1" as="geometry" />
        </mxCell>
        <mxCell id="XsUZ7Q_pEyMDyvgBv2iL-15" style="edgeStyle=none;rounded=0;orthogonalLoop=1;jettySize=auto;html=1;exitX=0.5;exitY=0;exitDx=0;exitDy=0;entryX=0.5;entryY=1;entryDx=0;entryDy=0;strokeWidth=1;fontSize=15;" edge="1" parent="1" source="XsUZ7Q_pEyMDyvgBv2iL-1" target="XsUZ7Q_pEyMDyvgBv2iL-2">
          <mxGeometry relative="1" as="geometry" />
        </mxCell>
        <mxCell id="XsUZ7Q_pEyMDyvgBv2iL-1" value="1&lt;br style=&quot;font-size: 15px;&quot;&gt;登录验证" style="ellipse;whiteSpace=wrap;html=1;fontSize=15;" vertex="1" parent="1">
          <mxGeometry x="290" y="425" width="120" height="80" as="geometry" />
        </mxCell>
        <mxCell id="XsUZ7Q_pEyMDyvgBv2iL-2" value="5&lt;br style=&quot;font-size: 15px;&quot;&gt;不处理" style="ellipse;whiteSpace=wrap;html=1;fontSize=15;" vertex="1" parent="1">
          <mxGeometry x="290" y="145" width="120" height="80" as="geometry" />
        </mxCell>
        <mxCell id="XsUZ7Q_pEyMDyvgBv2iL-49" style="edgeStyle=none;rounded=0;orthogonalLoop=1;jettySize=auto;html=1;exitX=0;exitY=1;exitDx=0;exitDy=0;strokeWidth=1;fontSize=15;" edge="1" parent="1" source="XsUZ7Q_pEyMDyvgBv2iL-3">
          <mxGeometry relative="1" as="geometry">
            <mxPoint x="308" y="905" as="targetPoint" />
          </mxGeometry>
        </mxCell>
        <mxCell id="XsUZ7Q_pEyMDyvgBv2iL-50" style="edgeStyle=none;rounded=0;orthogonalLoop=1;jettySize=auto;html=1;exitX=0.5;exitY=1;exitDx=0;exitDy=0;strokeWidth=1;fontSize=15;" edge="1" parent="1" source="XsUZ7Q_pEyMDyvgBv2iL-3">
          <mxGeometry relative="1" as="geometry">
            <mxPoint x="350" y="915" as="targetPoint" />
          </mxGeometry>
        </mxCell>
        <mxCell id="XsUZ7Q_pEyMDyvgBv2iL-51" style="edgeStyle=none;rounded=0;orthogonalLoop=1;jettySize=auto;html=1;exitX=1;exitY=1;exitDx=0;exitDy=0;strokeWidth=1;fontSize=15;" edge="1" parent="1" source="XsUZ7Q_pEyMDyvgBv2iL-3">
          <mxGeometry relative="1" as="geometry">
            <mxPoint x="392" y="905" as="targetPoint" />
          </mxGeometry>
        </mxCell>
        <mxCell id="XsUZ7Q_pEyMDyvgBv2iL-3" value="4&lt;br style=&quot;font-size: 15px;&quot;&gt;站点前台查看" style="ellipse;whiteSpace=wrap;html=1;fontSize=15;" vertex="1" parent="1">
          <mxGeometry x="290" y="725" width="120" height="80" as="geometry" />
        </mxCell>
        <mxCell id="XsUZ7Q_pEyMDyvgBv2iL-22" style="edgeStyle=none;rounded=0;orthogonalLoop=1;jettySize=auto;html=1;exitX=0.5;exitY=0;exitDx=0;exitDy=0;entryX=0;entryY=0.5;entryDx=0;entryDy=0;strokeWidth=1;fontSize=15;" edge="1" parent="1" source="XsUZ7Q_pEyMDyvgBv2iL-4" target="XsUZ7Q_pEyMDyvgBv2iL-18">
          <mxGeometry relative="1" as="geometry" />
        </mxCell>
        <mxCell id="XsUZ7Q_pEyMDyvgBv2iL-23" style="edgeStyle=none;rounded=0;orthogonalLoop=1;jettySize=auto;html=1;exitX=1;exitY=0;exitDx=0;exitDy=0;entryX=0;entryY=0.5;entryDx=0;entryDy=0;strokeWidth=1;fontSize=15;" edge="1" parent="1" source="XsUZ7Q_pEyMDyvgBv2iL-4" target="XsUZ7Q_pEyMDyvgBv2iL-19">
          <mxGeometry relative="1" as="geometry" />
        </mxCell>
        <mxCell id="XsUZ7Q_pEyMDyvgBv2iL-24" style="edgeStyle=none;rounded=0;orthogonalLoop=1;jettySize=auto;html=1;exitX=1;exitY=0.5;exitDx=0;exitDy=0;entryX=0;entryY=0.5;entryDx=0;entryDy=0;strokeWidth=1;fontSize=15;" edge="1" parent="1" source="XsUZ7Q_pEyMDyvgBv2iL-4" target="XsUZ7Q_pEyMDyvgBv2iL-20">
          <mxGeometry relative="1" as="geometry" />
        </mxCell>
        <mxCell id="XsUZ7Q_pEyMDyvgBv2iL-25" style="edgeStyle=none;rounded=0;orthogonalLoop=1;jettySize=auto;html=1;exitX=1;exitY=1;exitDx=0;exitDy=0;entryX=0;entryY=0.5;entryDx=0;entryDy=0;strokeWidth=1;fontSize=15;" edge="1" parent="1" source="XsUZ7Q_pEyMDyvgBv2iL-4" target="XsUZ7Q_pEyMDyvgBv2iL-21">
          <mxGeometry relative="1" as="geometry" />
        </mxCell>
        <mxCell id="XsUZ7Q_pEyMDyvgBv2iL-4" value="2&lt;br style=&quot;font-size: 15px;&quot;&gt;站点后台使用" style="ellipse;whiteSpace=wrap;html=1;fontSize=15;" vertex="1" parent="1">
          <mxGeometry x="780" y="255" width="120" height="80" as="geometry" />
        </mxCell>
        <mxCell id="XsUZ7Q_pEyMDyvgBv2iL-32" style="edgeStyle=none;rounded=0;orthogonalLoop=1;jettySize=auto;html=1;exitX=0;exitY=1;exitDx=0;exitDy=0;entryX=1;entryY=0;entryDx=0;entryDy=0;strokeWidth=1;fontSize=15;" edge="1" parent="1" source="XsUZ7Q_pEyMDyvgBv2iL-5" target="XsUZ7Q_pEyMDyvgBv2iL-30">
          <mxGeometry relative="1" as="geometry" />
        </mxCell>
        <mxCell id="XsUZ7Q_pEyMDyvgBv2iL-33" style="edgeStyle=none;rounded=0;orthogonalLoop=1;jettySize=auto;html=1;exitX=1;exitY=1;exitDx=0;exitDy=0;entryX=0;entryY=0;entryDx=0;entryDy=0;strokeWidth=1;fontSize=15;" edge="1" parent="1" source="XsUZ7Q_pEyMDyvgBv2iL-5" target="XsUZ7Q_pEyMDyvgBv2iL-31">
          <mxGeometry relative="1" as="geometry" />
        </mxCell>
        <mxCell id="XsUZ7Q_pEyMDyvgBv2iL-5" value="3&lt;br style=&quot;font-size: 15px;&quot;&gt;站点前台使用" style="ellipse;whiteSpace=wrap;html=1;fontSize=15;" vertex="1" parent="1">
          <mxGeometry x="780" y="555" width="120" height="80" as="geometry" />
        </mxCell>
        <mxCell id="XsUZ7Q_pEyMDyvgBv2iL-6" value="" style="endArrow=classic;html=1;rounded=0;entryX=0;entryY=0;entryDx=0;entryDy=0;fontSize=15;" edge="1" parent="1" target="XsUZ7Q_pEyMDyvgBv2iL-1">
          <mxGeometry width="50" height="50" relative="1" as="geometry">
            <mxPoint x="130" y="437" as="sourcePoint" />
            <mxPoint x="180" y="440" as="targetPoint" />
          </mxGeometry>
        </mxCell>
        <mxCell id="XsUZ7Q_pEyMDyvgBv2iL-7" value="" style="endArrow=classic;html=1;rounded=0;entryX=0;entryY=1;entryDx=0;entryDy=0;fontSize=15;" edge="1" parent="1" target="XsUZ7Q_pEyMDyvgBv2iL-1">
          <mxGeometry width="50" height="50" relative="1" as="geometry">
            <mxPoint x="130" y="495" as="sourcePoint" />
            <mxPoint x="290.00359312880727" y="504.9957287525383" as="targetPoint" />
          </mxGeometry>
        </mxCell>
        <mxCell id="XsUZ7Q_pEyMDyvgBv2iL-8" value="管理员" style="text;html=1;align=center;verticalAlign=middle;resizable=0;points=[];autosize=1;strokeColor=none;fillColor=none;fontSize=15;" vertex="1" parent="1">
          <mxGeometry x="155" y="400" width="70" height="30" as="geometry" />
        </mxCell>
        <mxCell id="XsUZ7Q_pEyMDyvgBv2iL-9" value="用户" style="text;html=1;align=center;verticalAlign=middle;resizable=0;points=[];autosize=1;strokeColor=none;fillColor=none;fontSize=15;" vertex="1" parent="1">
          <mxGeometry x="165" y="465" width="50" height="30" as="geometry" />
        </mxCell>
        <mxCell id="XsUZ7Q_pEyMDyvgBv2iL-12" value="管理员有效登录" style="text;html=1;align=center;verticalAlign=middle;resizable=0;points=[];autosize=1;strokeColor=none;fillColor=none;fontSize=15;" vertex="1" parent="1">
          <mxGeometry x="520" y="385" width="130" height="30" as="geometry" />
        </mxCell>
        <mxCell id="XsUZ7Q_pEyMDyvgBv2iL-13" value="用户有效登录" style="text;html=1;align=center;verticalAlign=middle;resizable=0;points=[];autosize=1;strokeColor=none;fillColor=none;fontSize=15;" vertex="1" parent="1">
          <mxGeometry x="530" y="495" width="110" height="30" as="geometry" />
        </mxCell>
        <mxCell id="XsUZ7Q_pEyMDyvgBv2iL-16" value="用户无效登录" style="text;html=1;align=center;verticalAlign=middle;resizable=0;points=[];autosize=1;strokeColor=none;fillColor=none;fontSize=15;rotation=90;" vertex="1" parent="1">
          <mxGeometry x="310" y="580" width="110" height="30" as="geometry" />
        </mxCell>
        <mxCell id="XsUZ7Q_pEyMDyvgBv2iL-17" value="管理员无效登录" style="text;html=1;align=center;verticalAlign=middle;resizable=0;points=[];autosize=1;strokeColor=none;fillColor=none;fontSize=15;rotation=90;" vertex="1" parent="1">
          <mxGeometry x="300" y="295" width="130" height="30" as="geometry" />
        </mxCell>
        <mxCell id="XsUZ7Q_pEyMDyvgBv2iL-18" value="2.1&lt;br&gt;增加/修改/删除" style="ellipse;whiteSpace=wrap;html=1;strokeWidth=1;fontSize=15;" vertex="1" parent="1">
          <mxGeometry x="1120" y="110" width="120" height="80" as="geometry" />
        </mxCell>
        <mxCell id="XsUZ7Q_pEyMDyvgBv2iL-19" value="2.2&lt;br&gt;统计查看" style="ellipse;whiteSpace=wrap;html=1;strokeWidth=1;fontSize=15;" vertex="1" parent="1">
          <mxGeometry x="1120" y="215" width="120" height="80" as="geometry" />
        </mxCell>
        <mxCell id="XsUZ7Q_pEyMDyvgBv2iL-20" value="2.3&lt;br&gt;回复" style="ellipse;whiteSpace=wrap;html=1;strokeWidth=1;fontSize=15;" vertex="1" parent="1">
          <mxGeometry x="1120" y="320" width="120" height="80" as="geometry" />
        </mxCell>
        <mxCell id="XsUZ7Q_pEyMDyvgBv2iL-21" value="2.4&lt;br&gt;信息维护" style="ellipse;whiteSpace=wrap;html=1;strokeWidth=1;fontSize=15;" vertex="1" parent="1">
          <mxGeometry x="1120" y="425" width="120" height="80" as="geometry" />
        </mxCell>
        <mxCell id="XsUZ7Q_pEyMDyvgBv2iL-26" value="歌手/歌曲/歌单等站点资源信息" style="text;html=1;align=center;verticalAlign=middle;resizable=0;points=[];autosize=1;strokeColor=none;fillColor=none;fontSize=15;" vertex="1" parent="1">
          <mxGeometry x="840" y="135" width="230" height="30" as="geometry" />
        </mxCell>
        <mxCell id="XsUZ7Q_pEyMDyvgBv2iL-27" value="站点资源信息" style="text;html=1;align=center;verticalAlign=middle;resizable=0;points=[];autosize=1;strokeColor=none;fillColor=none;fontSize=15;" vertex="1" parent="1">
          <mxGeometry x="930" y="225" width="110" height="30" as="geometry" />
        </mxCell>
        <mxCell id="XsUZ7Q_pEyMDyvgBv2iL-28" value="用户留言" style="text;html=1;align=center;verticalAlign=middle;resizable=0;points=[];autosize=1;strokeColor=none;fillColor=none;fontSize=15;" vertex="1" parent="1">
          <mxGeometry x="990" y="295" width="80" height="30" as="geometry" />
        </mxCell>
        <mxCell id="XsUZ7Q_pEyMDyvgBv2iL-29" value="用户信息" style="text;html=1;align=center;verticalAlign=middle;resizable=0;points=[];autosize=1;strokeColor=none;fillColor=none;fontSize=15;" vertex="1" parent="1">
          <mxGeometry x="1020" y="385" width="80" height="30" as="geometry" />
        </mxCell>
        <mxCell id="XsUZ7Q_pEyMDyvgBv2iL-36" style="edgeStyle=none;rounded=0;orthogonalLoop=1;jettySize=auto;html=1;exitX=0;exitY=1;exitDx=0;exitDy=0;strokeWidth=1;fontSize=15;" edge="1" parent="1" source="XsUZ7Q_pEyMDyvgBv2iL-30">
          <mxGeometry relative="1" as="geometry">
            <mxPoint x="648" y="835" as="targetPoint" />
          </mxGeometry>
        </mxCell>
        <mxCell id="XsUZ7Q_pEyMDyvgBv2iL-37" style="edgeStyle=none;rounded=0;orthogonalLoop=1;jettySize=auto;html=1;exitX=0.5;exitY=1;exitDx=0;exitDy=0;strokeWidth=1;fontSize=15;" edge="1" parent="1" source="XsUZ7Q_pEyMDyvgBv2iL-30">
          <mxGeometry relative="1" as="geometry">
            <mxPoint x="690" y="885" as="targetPoint" />
          </mxGeometry>
        </mxCell>
        <mxCell id="XsUZ7Q_pEyMDyvgBv2iL-38" style="edgeStyle=none;rounded=0;orthogonalLoop=1;jettySize=auto;html=1;exitX=1;exitY=1;exitDx=0;exitDy=0;strokeWidth=1;fontSize=15;" edge="1" parent="1" source="XsUZ7Q_pEyMDyvgBv2iL-30">
          <mxGeometry relative="1" as="geometry">
            <mxPoint x="732" y="835" as="targetPoint" />
          </mxGeometry>
        </mxCell>
        <mxCell id="XsUZ7Q_pEyMDyvgBv2iL-30" value="3.1&lt;br&gt;操作处理" style="ellipse;whiteSpace=wrap;html=1;strokeWidth=1;fontSize=15;" vertex="1" parent="1">
          <mxGeometry x="630" y="665" width="120" height="80" as="geometry" />
        </mxCell>
        <mxCell id="XsUZ7Q_pEyMDyvgBv2iL-42" style="edgeStyle=none;rounded=0;orthogonalLoop=1;jettySize=auto;html=1;exitX=0;exitY=1;exitDx=0;exitDy=0;strokeWidth=1;fontSize=15;" edge="1" parent="1" source="XsUZ7Q_pEyMDyvgBv2iL-31">
          <mxGeometry relative="1" as="geometry">
            <mxPoint x="948" y="835" as="targetPoint" />
          </mxGeometry>
        </mxCell>
        <mxCell id="XsUZ7Q_pEyMDyvgBv2iL-43" style="edgeStyle=none;rounded=0;orthogonalLoop=1;jettySize=auto;html=1;exitX=0.5;exitY=1;exitDx=0;exitDy=0;strokeWidth=1;fontSize=15;" edge="1" parent="1" source="XsUZ7Q_pEyMDyvgBv2iL-31">
          <mxGeometry relative="1" as="geometry">
            <mxPoint x="990" y="855" as="targetPoint" />
          </mxGeometry>
        </mxCell>
        <mxCell id="XsUZ7Q_pEyMDyvgBv2iL-44" style="edgeStyle=none;rounded=0;orthogonalLoop=1;jettySize=auto;html=1;exitX=1;exitY=1;exitDx=0;exitDy=0;strokeWidth=1;fontSize=15;" edge="1" parent="1" source="XsUZ7Q_pEyMDyvgBv2iL-31">
          <mxGeometry relative="1" as="geometry">
            <mxPoint x="1032" y="835" as="targetPoint" />
          </mxGeometry>
        </mxCell>
        <mxCell id="XsUZ7Q_pEyMDyvgBv2iL-31" value="3.2&lt;br&gt;查看" style="ellipse;whiteSpace=wrap;html=1;strokeWidth=1;fontSize=15;" vertex="1" parent="1">
          <mxGeometry x="930" y="665" width="120" height="80" as="geometry" />
        </mxCell>
        <mxCell id="XsUZ7Q_pEyMDyvgBv2iL-34" value="站点资源" style="text;html=1;align=center;verticalAlign=middle;resizable=0;points=[];autosize=1;strokeColor=none;fillColor=none;fontSize=15;" vertex="1" parent="1">
          <mxGeometry x="900" y="620" width="80" height="30" as="geometry" />
        </mxCell>
        <mxCell id="XsUZ7Q_pEyMDyvgBv2iL-35" value="用户使用" style="text;html=1;align=center;verticalAlign=middle;resizable=0;points=[];autosize=1;strokeColor=none;fillColor=none;fontSize=15;" vertex="1" parent="1">
          <mxGeometry x="695" y="620" width="80" height="30" as="geometry" />
        </mxCell>
        <mxCell id="XsUZ7Q_pEyMDyvgBv2iL-39" value="留言、反馈" style="text;html=1;align=center;verticalAlign=middle;resizable=0;points=[];autosize=1;strokeColor=none;fillColor=none;fontSize=15;rotation=90;" vertex="1" parent="1">
          <mxGeometry x="615" y="765" width="100" height="30" as="geometry" />
        </mxCell>
        <mxCell id="XsUZ7Q_pEyMDyvgBv2iL-40" value="歌曲收藏、下载" style="text;html=1;align=center;verticalAlign=middle;resizable=0;points=[];autosize=1;strokeColor=none;fillColor=none;fontSize=15;rotation=90;" vertex="1" parent="1">
          <mxGeometry x="640" y="795" width="130" height="30" as="geometry" />
        </mxCell>
        <mxCell id="XsUZ7Q_pEyMDyvgBv2iL-45" value="点赞、评论" style="text;html=1;align=center;verticalAlign=middle;resizable=0;points=[];autosize=1;strokeColor=none;fillColor=none;fontSize=15;rotation=90;" vertex="1" parent="1">
          <mxGeometry x="695" y="765" width="100" height="30" as="geometry" />
        </mxCell>
        <mxCell id="XsUZ7Q_pEyMDyvgBv2iL-46" value="歌曲收藏" style="text;html=1;align=center;verticalAlign=middle;resizable=0;points=[];autosize=1;strokeColor=none;fillColor=none;fontSize=15;rotation=90;" vertex="1" parent="1">
          <mxGeometry x="925" y="775" width="80" height="30" as="geometry" />
        </mxCell>
        <mxCell id="XsUZ7Q_pEyMDyvgBv2iL-47" value="个人中心" style="text;html=1;align=center;verticalAlign=middle;resizable=0;points=[];autosize=1;strokeColor=none;fillColor=none;fontSize=15;rotation=90;" vertex="1" parent="1">
          <mxGeometry x="970" y="775" width="80" height="30" as="geometry" />
        </mxCell>
        <mxCell id="XsUZ7Q_pEyMDyvgBv2iL-48" value="站点资源" style="text;html=1;align=center;verticalAlign=middle;resizable=0;points=[];autosize=1;strokeColor=none;fillColor=none;fontSize=15;rotation=90;" vertex="1" parent="1">
          <mxGeometry x="1010" y="765" width="80" height="30" as="geometry" />
        </mxCell>
        <mxCell id="XsUZ7Q_pEyMDyvgBv2iL-52" value="歌曲信息" style="text;html=1;align=center;verticalAlign=middle;resizable=0;points=[];autosize=1;strokeColor=none;fillColor=none;fontSize=15;rotation=90;" vertex="1" parent="1">
          <mxGeometry x="290" y="825" width="80" height="30" as="geometry" />
        </mxCell>
        <mxCell id="XsUZ7Q_pEyMDyvgBv2iL-53" value="歌单信息" style="text;html=1;align=center;verticalAlign=middle;resizable=0;points=[];autosize=1;strokeColor=none;fillColor=none;fontSize=15;rotation=90;" vertex="1" parent="1">
          <mxGeometry x="330" y="835" width="80" height="30" as="geometry" />
        </mxCell>
        <mxCell id="XsUZ7Q_pEyMDyvgBv2iL-54" value="留言板" style="text;html=1;align=center;verticalAlign=middle;resizable=0;points=[];autosize=1;strokeColor=none;fillColor=none;fontSize=15;rotation=90;" vertex="1" parent="1">
          <mxGeometry x="375" y="825" width="70" height="30" as="geometry" />
        </mxCell>
        <mxCell id="XsUZ7Q_pEyMDyvgBv2iL-55" value="音渊1级数据流图" style="text;html=1;align=center;verticalAlign=middle;resizable=0;points=[];autosize=1;strokeColor=none;fillColor=none;fontSize=30;fontStyle=1" vertex="1" parent="1">
          <mxGeometry x="590" y="60" width="250" height="50" as="geometry" />
        </mxCell>
      </root>
    </mxGraphModel>
  </diagram>
</mxfile>
